<svg width="129" height="128" viewBox="0 0 129 128" fill="none" xmlns="http://www.w3.org/2000/svg">
<path d="M24.3 108.804L15.316 8H114.068L105.072 108.788L64.632 120L24.3 108.804Z" fill="#1572B6"/>
<path d="M64.692 111.432L97.372 102.372L105.06 16.244H64.692V111.432Z" fill="#33A9DC"/>
<path d="M64.692 52.764H81.052L82.18 40.104H64.692V27.74H95.692L95.396 31.056L92.36 65.128H64.692V52.764Z" fill="#C7C8C8"/>
<path d="M64.768 84.872L64.712 84.888L50.944 81.168L50.064 71.308H37.652L39.384 90.72L64.708 97.752L64.768 97.736V84.872Z" fill="#EBEBEB"/>
<path d="M80 64.604L78.512 81.16L64.724 84.88V97.744L90.068 90.72L90.256 88.632L92.404 64.604H80Z" fill="#C7C8C8"/>
<path d="M64.736 27.74V40.104H34.872L34.624 37.324L34.06 31.056L33.764 27.74H64.736ZM64.692 52.764V65.128H51.096L50.848 62.348L50.288 56.08L49.992 52.764H64.692Z" fill="#EBEBEB"/>
</svg>
