<svg width="129" height="128" viewBox="0 0 129 128" fill="none" xmlns="http://www.w3.org/2000/svg">
<g clip-path="url(#clip0_10_78)">
<path d="M26.789 101.895L4.89104 79.9974C2.29354 77.3349 0.68454 73.5704 0.68454 69.8909C0.68454 68.1874 1.64454 65.5244 2.36904 63.9999L22.5825 21.8979L26.789 101.895Z" fill="#01579B"/>
<path d="M101.743 26.1045L79.8445 4.2065C77.9345 2.2865 73.9535 0 70.5845 0C67.6865 0 64.8445 0.5835 63.0095 1.6845L22.592 21.898L101.743 26.1045ZM52.8935 128H105.949V105.265L66.369 92.6265L30.158 105.265L52.8935 128Z" fill="#40C4FF"/>
<path d="M22.5825 90.1045C22.5825 96.861 23.4295 98.5175 26.789 101.895L30.158 105.264H105.949L68.9005 63.1625L22.5825 21.8975V90.105V90.1045Z" fill="#29B6F6"/>
<path d="M89.9515 21.8885H22.5825L105.949 105.255H128.685V53.0466L101.733 26.095C97.95 22.3025 94.5905 21.8885 89.9515 21.8885Z" fill="#01579B"/>
<path opacity="0.2" d="M27.636 102.733C24.267 99.355 23.4295 96.0235 23.4295 90.1045V22.735L22.592 21.8975V90.104C22.582 96.023 22.582 97.6605 27.636 102.732V102.733Z" fill="#C7C8C8"/>
<path opacity="0.2" d="M127.847 52.209V104.417H105.112L105.949 105.264H128.685V53.0465L127.847 52.209Z" fill="#263238"/>
<path opacity="0.2" d="M101.743 26.1044C97.5645 21.9259 94.1485 21.8979 89.114 21.8979H22.592L23.4295 22.7354H89.114C91.6265 22.7354 97.969 22.3119 101.743 26.1044Z" fill="#C7C8C8"/>
<path opacity="0.2" d="M127.847 52.209L101.743 26.104L79.8445 4.207C77.9345 2.2865 73.9535 0 70.5845 0C67.6865 0 64.8445 0.5835 63.0095 1.6845L22.592 21.898L2.37854 64C1.65354 65.534 0.693539 68.197 0.693539 69.891C0.693539 73.5705 2.31254 77.325 4.90054 79.9975L25.076 100.033C25.556 100.625 26.121 101.228 26.789 101.896L27.6265 102.733L30.1485 105.255L52.0465 127.153L52.884 127.991H105.93V105.256H128.665V53.046L127.847 52.2085L127.847 52.209Z" fill="url(#paint0_radial_10_78)"/>
</g>
<defs>
<radialGradient id="paint0_radial_10_78" cx="0" cy="0" r="1" gradientUnits="userSpaceOnUse" gradientTransform="translate(6399.27 6398.82) scale(6399.09 6399.08)">
<stop stop-color="white" stop-opacity="0.1"/>
<stop offset="1" stop-color="white" stop-opacity="0"/>
</radialGradient>
<clipPath id="clip0_10_78">
<rect width="128" height="128" fill="white" transform="translate(0.68454)"/>
</clipPath>
</defs>
</svg>
