<svg width="129" height="128" viewBox="0 0 129 128" fill="none" xmlns="http://www.w3.org/2000/svg">
<path d="M125.422 58.378L70.3056 3.26405C67.1336 0.090045 61.9856 0.090045 58.8086 3.26405L47.3646 14.71L61.8826 29.228C65.2576 28.089 69.1256 28.853 71.8146 31.542C74.5176 34.248 75.2756 38.149 74.1086 41.535L88.1006 55.528C91.4856 54.361 95.3926 55.115 98.0946 57.823C101.875 61.6 101.875 67.723 98.0946 71.502C97.1963 72.4008 96.1298 73.1137 94.9559 73.6001C93.782 74.0865 92.5238 74.3369 91.2531 74.3369C89.9824 74.3369 88.7242 74.0865 87.5503 73.6001C86.3764 73.1137 85.3099 72.4008 84.4116 71.502C83.062 70.1516 82.142 68.4321 81.7674 66.56C81.3929 64.6879 81.5805 62.7468 82.3066 60.981L69.2586 47.933L69.2566 82.274C70.2033 82.7403 71.0676 83.3577 71.8156 84.102C75.5936 87.879 75.5936 94 71.8156 97.785C68.0366 101.562 61.9116 101.562 58.1366 97.785C54.3586 94.001 54.3586 87.88 58.1366 84.102C59.0417 83.1955 60.1183 82.4782 61.3036 81.992V47.333C60.1174 46.8483 59.0405 46.1304 58.1366 45.222C55.2746 42.362 54.5856 38.162 56.0536 34.646L41.7406 20.333L3.94858 58.123C2.4239 59.6482 1.56738 61.7165 1.56738 63.873C1.56738 66.0296 2.4239 68.0979 3.94858 69.623L59.0656 124.737C62.2396 127.911 67.3856 127.911 70.5646 124.737L125.423 69.879C126.947 68.3535 127.803 66.285 127.803 64.1283C127.803 61.9717 126.946 59.9034 125.422 58.378Z" fill="#F34F29"/>
</svg>
