<svg width="80" height="81" viewBox="0 0 80 81" fill="none" xmlns="http://www.w3.org/2000/svg">
<path d="M40 6.9668C35.6226 6.9668 31.2881 7.82899 27.2439 9.50415C23.1997 11.1793 19.5251 13.6346 16.4298 16.7299C10.1786 22.9811 6.66669 31.4596 6.66669 40.3001C6.66669 55.0335 16.2334 67.5335 29.4667 71.9668C31.1334 72.2335 31.6667 71.2001 31.6667 70.3001V64.6668C22.4334 66.6668 20.4667 60.2001 20.4667 60.2001C18.9334 56.3335 16.7667 55.3001 16.7667 55.3001C13.7334 53.2335 17 53.3001 17 53.3001C20.3334 53.5335 22.1 56.7335 22.1 56.7335C25 61.8001 29.9 60.3001 31.8 59.5001C32.1 57.3335 32.9667 55.8668 33.9 55.0335C26.5 54.2001 18.7334 51.3335 18.7334 38.6335C18.7334 34.9335 20 31.9668 22.1667 29.6001C21.8334 28.7668 20.6667 25.3001 22.5 20.8001C22.5 20.8001 25.3 19.9001 31.6667 24.2001C34.3 23.4668 37.1667 23.1001 40 23.1001C42.8334 23.1001 45.7 23.4668 48.3334 24.2001C54.7 19.9001 57.5 20.8001 57.5 20.8001C59.3334 25.3001 58.1667 28.7668 57.8334 29.6001C60 31.9668 61.2667 34.9335 61.2667 38.6335C61.2667 51.3668 53.4667 54.1668 46.0334 55.0001C47.2334 56.0335 48.3334 58.0668 48.3334 61.1668V70.3001C48.3334 71.2001 48.8667 72.2668 50.5667 71.9668C63.8 67.5001 73.3334 55.0335 73.3334 40.3001C73.3334 35.9227 72.4712 31.5882 70.796 27.544C69.1208 23.4998 66.6655 19.8252 63.5702 16.7299C60.475 13.6346 56.8003 11.1793 52.7561 9.50415C48.7119 7.82899 44.3774 6.9668 40 6.9668Z" fill="#C7C8C8"/>
</svg>
