<svg width="129" height="128" viewBox="0 0 129 128" fill="none" xmlns="http://www.w3.org/2000/svg">
<path d="M24.3 108.804L15.312 8H114.072L105.072 108.788L64.632 120L24.3 108.804Z" fill="#E44F26"/>
<path d="M64.692 111.432L97.372 102.372L105.06 16.244H64.692V111.432Z" fill="#F1662A"/>
<path d="M64.692 53.628H48.332L47.204 40.968H64.692V28.604H33.692L33.988 31.924L37.024 65.992H64.692V53.628ZM64.692 85.736L64.636 85.752L50.868 82.036L49.988 72.176H37.576L39.308 91.584L64.636 98.616L64.692 98.6V85.736Z" fill="#EBEBEB"/>
<path d="M64.6481 53.628V65.992H79.8721L78.4401 82.028L64.6481 85.748V98.612L89.9961 91.584L90.1801 89.496L93.0841 56.948L93.3881 53.628H64.6481ZM64.6481 28.604V40.968H94.5121L94.7601 38.192L95.3241 31.924L95.6201 28.604H64.6481Z" fill="#C7C8C8"/>
</svg>
