<svg width="129" height="128" viewBox="0 0 129 128" fill="none" xmlns="http://www.w3.org/2000/svg">
<path d="M1.71596 1.40796H126.9V126.593H1.71596V1.40796Z" fill="#F0DB4F"/>
<path d="M116.655 96.736C115.738 91.025 112.014 86.228 100.983 81.755C97.151 79.994 92.8789 78.733 91.6059 75.829C91.1539 74.139 91.0939 73.187 91.3799 72.164C92.2009 68.844 96.1639 67.809 99.3049 68.761C101.328 69.439 103.243 70.998 104.398 73.485C109.8 69.987 109.789 70.01 113.561 67.606C112.18 65.465 111.443 64.477 110.539 63.561C107.29 59.932 102.863 58.063 95.7829 58.206L92.095 58.683C88.561 59.576 85.193 61.431 83.218 63.918C77.292 70.642 78.982 82.41 86.193 87.253C93.297 92.585 103.733 93.798 105.066 98.784C106.363 104.888 100.58 106.864 94.832 106.162C90.596 105.281 88.24 103.128 85.693 99.213C81.005 101.926 81.0049 101.926 76.1849 104.698C77.3279 107.197 78.529 108.328 80.445 110.493C89.5129 119.691 112.205 119.239 116.275 105.317C116.44 104.839 117.536 101.651 116.655 96.736ZM69.7699 58.943H58.0609L58.013 89.215C58.013 95.653 58.346 101.555 57.299 103.364C55.586 106.922 51.147 106.481 49.124 105.791C47.065 104.779 46.018 103.34 44.805 101.306C44.472 100.722 44.222 100.27 44.138 100.235L34.618 106.065C36.201 109.314 38.533 112.134 41.52 113.966C45.982 116.644 51.979 117.465 58.2509 116.025C62.3329 114.836 65.8549 112.373 67.6989 108.624C70.3649 103.709 69.7929 97.76 69.7689 91.18C69.8289 80.445 69.7699 69.712 69.7699 58.943Z" fill="#323330"/>
</svg>
