<svg width="129" height="128" viewBox="0 0 129 128" fill="none" xmlns="http://www.w3.org/2000/svg">
<path d="M54.2845 43.2L54.5512 49.3334L50.2845 57.3334L43.6179 70.4L42.2845 81.3334L47.0845 96.8L58.0179 102.933H74.5512L90.0179 91.2L96.9512 72.8L80.9512 53.3334L76.4179 42.4L54.2845 43.2Z" fill="#ECEFF1"/>
<path d="M92.1512 58.4C87.8845 52.2667 84.4179 48.5334 82.5512 40.8C80.6845 33.0667 83.0845 35.2 81.4845 28.5333C80.6845 25.0667 79.3512 22.6667 78.0179 20.8C76.4179 18.9333 74.5512 17.8667 73.4845 17.6C71.0845 16.2667 65.4845 14.1333 58.5512 17.8667C51.3512 21.6 52.1512 29.6 53.4845 45.8667C53.4845 46.9334 53.2179 48.2667 52.6845 49.3333C51.6179 51.7333 49.7512 53.8667 48.1512 55.7333C46.2845 58.4 44.4179 61.0667 43.0845 64C39.8845 70.1334 36.9512 77.8667 37.7512 80.8C39.0845 80.5333 55.8845 106.133 55.8845 106.667C56.9512 106.4 61.4845 106.4 65.4845 106.4C71.0845 106.133 74.2845 105.867 78.8179 106.933C78.8179 106.133 78.5512 105.333 78.5512 104.533C78.5512 102.933 78.8179 101.6 79.0845 99.7334C79.3512 98.4 79.6179 97.0667 79.8845 95.4667C77.2179 97.8667 72.4179 100.533 67.8845 101.333C63.8845 102.133 57.2179 100.8 54.0179 96.8C54.2845 96.8 54.8179 96.8 55.0845 96.5334C55.8845 96.2667 56.6845 96 56.9512 95.4667C57.7512 94.1333 57.2179 92.8 56.6845 92C56.1512 91.2 52.1512 88.2667 50.2845 86.6667C48.4179 85.0667 47.3512 84.2667 46.2845 83.2L44.1512 81.0667C43.6179 80.5333 43.3512 80 43.0845 79.7333C42.5512 78.4 42.2845 76.8 42.5512 74.6667C42.8179 71.7334 43.8845 69.3334 45.2179 66.6667C45.7512 65.6 47.0845 63.4667 47.0845 63.4667C47.0845 63.4667 42.5512 74.6667 44.9512 78.1333C44.9512 78.1333 45.2179 74.6667 46.2845 71.2C47.0845 68.8 48.4179 65.3333 50.0179 63.4667C51.6179 61.6 55.6179 54.6667 55.8845 50.4C55.8845 48.5333 56.1512 46.6667 56.1512 45.3333C55.0845 44.2667 73.7512 41.6 74.8179 44.5334C75.0845 45.6 78.8179 55.2 80.9512 60.2667C82.0179 62.6667 83.3512 64.8 84.1512 67.4667C84.9512 70.4 85.4845 74.4 85.4845 78.4C85.4845 79.2 85.4845 80.5334 85.2179 81.8667C85.7512 81.8667 96.1512 70.6667 83.8845 61.3333C83.8845 61.3333 91.3512 64.8 91.6179 71.7333C91.8845 77.3333 89.4845 81.8667 88.9512 82.6667C89.2179 82.6667 94.5512 85.0667 94.8179 85.0667C95.8845 85.0667 98.0179 84.2667 98.0179 84.2667C98.2845 83.4667 99.0845 81.3334 99.0845 80.5334C100.951 74.4 96.4179 64.5333 92.1512 58.4Z" fill="#263238"/>
<path d="M58.2845 40.8C60.1991 40.8 61.7512 38.4122 61.7512 35.4666C61.7512 32.5211 60.1991 30.1333 58.2845 30.1333C56.37 30.1333 54.8179 32.5211 54.8179 35.4666C54.8179 38.4122 56.37 40.8 58.2845 40.8Z" fill="#ECEFF1"/>
<path d="M70.2845 41.3333C72.7882 41.3333 74.8179 38.5873 74.8179 35.2C74.8179 31.8126 72.7882 29.0667 70.2845 29.0667C67.7808 29.0667 65.7512 31.8126 65.7512 35.2C65.7512 38.5873 67.7808 41.3333 70.2845 41.3333Z" fill="#ECEFF1"/>
<path d="M60.223 35.8311C60.0014 34.0777 58.9926 32.7612 57.9698 32.8904C56.947 33.0197 56.2975 34.5459 56.5191 36.2993C56.7408 38.0526 57.7496 39.3692 58.7724 39.2399C59.7951 39.1106 60.4446 37.5844 60.223 35.8311Z" fill="#212121"/>
<path d="M70.0179 39.7334C71.4906 39.7334 72.6845 38.1813 72.6845 36.2667C72.6845 34.3521 71.4906 32.8 70.0179 32.8C68.5451 32.8 67.3512 34.3521 67.3512 36.2667C67.3512 38.1813 68.5451 39.7334 70.0179 39.7334Z" fill="#212121"/>
<path d="M105.485 94.9334C104.418 94.4 102.551 93.6 100.951 91.2C100.151 89.8667 100.418 86.1334 99.0845 84.5334C98.2845 83.4667 97.2179 84 96.9512 84C94.5512 84.5334 88.9512 88.2667 85.2179 84C84.6845 83.4667 83.8845 82.6667 82.5512 82.6667C81.2179 82.6667 80.6845 83.2 80.1512 84.2667C79.6179 85.3334 79.6179 86.1334 79.6179 88.8C79.6179 90.9334 79.6179 93.3334 79.3512 95.2C78.8179 99.7334 78.0179 102.4 78.0179 105.067C78.0179 108 78.8179 109.867 79.8845 110.667C80.6845 111.467 82.0179 112 84.9512 112C87.8845 112 89.7512 110.933 91.6179 109.067C92.9512 107.733 94.0179 107.2 97.7512 104.533C100.685 102.667 105.218 100.267 106.018 99.4667C106.551 98.9334 107.351 98.6667 107.351 97.0667C107.351 95.7334 106.285 95.2 105.485 94.9334ZM51.8845 95.7334C49.2179 91.4667 48.9512 90.6667 47.0845 88C45.4845 85.3334 42.0179 80.2667 39.8845 80.2667C38.2845 80.2667 37.4845 81.0667 36.4179 82.1334C35.3512 83.2 34.2845 85.6 32.4179 86.9334C30.8179 88.2667 26.2845 88 25.2179 89.6C24.1512 91.2 26.2845 93.6 26.2845 97.6C26.2845 99.2 24.9512 100.267 24.6845 101.333C24.4179 102.667 24.1512 103.467 24.6845 104.533C25.7512 106.133 27.0845 106.667 36.1512 108.533C40.9512 109.6 45.4845 112.267 48.4179 112.533C51.3512 112.8 56.4179 112.533 56.4179 105.333C56.6845 101.067 54.2845 100 51.8845 95.7334ZM56.9512 47.4667C55.3512 46.4 54.0179 45.3334 54.0179 43.7334C54.0179 42.1334 55.0845 41.6 56.6845 40.2667C56.9512 40 59.8845 37.3334 62.8179 37.3334C65.7512 37.3334 69.2179 39.2 70.5512 39.7334C72.9512 40.2667 75.3512 40.8 75.0845 42.6667C74.8179 45.3334 74.5512 45.8667 71.8845 47.2C70.0179 47.7334 66.5512 50.6667 64.1512 50.6667C63.0845 50.6667 61.4845 50.6667 60.4179 50.4C59.6179 50.1334 58.2845 48.8 56.9512 47.4667Z" fill="#FFC107"/>
<path d="M56.4179 45.3333C56.9512 45.8666 57.7512 46.4 58.5512 46.6666C59.0845 46.9333 59.8845 47.2 59.8845 47.2H62.2845C63.6179 47.2 65.4845 46.6666 67.3512 45.6C69.2179 44.8 69.4845 44.2666 70.8179 43.7333C72.1512 42.9333 73.4845 42.1333 72.9512 41.8666C72.4179 41.6 71.8845 41.8666 70.0179 42.9333C68.4179 44 67.0845 44.5333 65.4845 45.3333C64.6845 45.6 63.6179 46.1333 62.8179 46.1333H60.4179C59.6179 46.1333 59.0845 45.8666 58.2845 45.6C57.7512 45.3333 57.4845 45.0666 57.2179 45.0666C56.6845 44.8 55.6179 43.7333 55.0845 43.4666C55.0845 43.4666 54.5512 43.4666 54.8179 43.7333L56.4179 45.3333ZM64.4179 39.4666C64.6845 40 65.2179 40 65.4845 40.2666C65.7512 40.5333 66.0179 40.5333 66.0179 40.5333C66.2845 40.2666 66.0179 39.7333 65.7512 39.7333C65.7512 39.2 64.4179 39.2 64.4179 39.4666ZM60.1512 40C60.1512 40.2666 60.6845 40.5333 60.6845 40.2666C60.9512 40 61.2179 39.7333 61.4845 39.7333C62.0179 39.4666 61.7512 39.2 60.9512 39.2C60.4179 39.4666 60.4179 39.7333 60.1512 40Z" fill="#634703"/>
<path d="M86.0179 87.2V88C86.5512 89.0666 87.8845 89.3333 88.9512 89.3333C90.5512 89.3333 92.1512 88.2666 92.9512 87.2C92.9512 86.9333 93.2179 86.6666 93.4845 86.4C94.0179 85.6 94.2845 85.0666 94.5512 84.8C94.5512 84.8 94.2845 84.5333 94.2845 84.2666C94.0179 83.7333 93.2179 83.2 92.1512 82.9333C91.3512 82.6666 90.0179 82.4 89.4845 82.4C87.0845 82.1333 85.7512 82.9333 84.9512 83.7333C84.9512 83.7333 85.2179 83.7333 85.2179 84C85.7512 84.5333 86.0179 85.0666 86.0179 85.8666C86.2845 86.4 86.0179 86.6666 86.0179 87.2Z" fill="#455A64"/>
</svg>
