<svg width="80" height="81" viewBox="0 0 80 81" fill="none" xmlns="http://www.w3.org/2000/svg">
<path d="M13.3333 66.9666C11.5 66.9666 9.92996 66.3133 8.6233 65.0066C7.31663 63.7 6.66441 62.1311 6.66663 60.3V20.3C6.66663 18.4666 7.31997 16.8966 8.62663 15.59C9.9333 14.2833 11.5022 13.6311 13.3333 13.6333H66.6666C68.5 13.6333 70.07 14.2866 71.3766 15.5933C72.6833 16.9 73.3355 18.4689 73.3333 20.3V60.3C73.3333 62.1333 72.68 63.7033 71.3733 65.01C70.0666 66.3166 68.4977 66.9689 66.6666 66.9666H13.3333ZM40 43.6333L66.6666 26.9666V20.3L40 36.9666L13.3333 20.3V26.9666L40 43.6333Z" fill="#C7C8C8"/>
</svg>
