<svg width="114" height="128" viewBox="0 0 114 128" fill="none" xmlns="http://www.w3.org/2000/svg">
<g clip-path="url(#clip0_10_44)">
<path d="M57 127.762C55.2394 127.762 53.5963 127.293 52.0704 126.471L36.4593 117.199C34.1119 115.908 35.2856 115.438 35.9898 115.203C39.1588 114.147 39.7457 113.912 43.032 112.034C43.3846 111.799 43.8541 111.917 44.2058 112.151L56.1784 119.311C56.6479 119.546 57.2347 119.546 57.5868 119.311L104.42 92.198C104.889 91.9632 105.124 91.4938 105.124 90.9069V36.7966C105.124 36.2097 104.889 35.7402 104.42 35.5055L57.5868 8.50902C57.1174 8.27428 56.5305 8.27428 56.1784 8.50902L9.34546 35.5059C8.87598 35.7407 8.64124 36.3275 8.64124 36.797V90.9069C8.64124 91.3764 8.87598 91.9632 9.34546 92.198L22.1397 99.5923C29.065 103.113 33.4072 99.0055 33.4072 94.8975V41.4914C33.4072 40.7872 33.9945 40.0829 34.8161 40.0829H40.8025C41.5067 40.0829 42.2109 40.6698 42.2109 41.4914V94.8971C42.2109 104.17 37.1635 109.569 28.3603 109.569C25.6608 109.569 23.5481 109.569 17.5623 106.635L5.2375 99.5923C2.18588 97.8313 0.307953 94.5449 0.307953 91.0238V36.9144C0.307953 33.3933 2.18588 30.1069 5.2375 28.3459L52.0704 1.23251C55.0047 -0.410674 58.9953 -0.410674 61.9295 1.23251L108.762 28.3459C111.814 30.1065 113.692 33.3928 113.692 36.9144V91.0243C113.692 94.5454 111.814 97.8318 108.762 99.5923L61.9295 126.707C60.4037 127.411 58.6432 127.763 57 127.763V127.762ZM71.437 90.5544C50.8963 90.5544 46.671 81.1647 46.671 73.1831C46.671 72.4789 47.2578 71.7747 48.0794 71.7747H54.1827C54.8869 71.7747 55.4742 72.2442 55.4742 72.9484C56.4131 79.169 59.1127 82.2211 71.5543 82.2211C81.4139 82.2211 85.6397 79.991 85.6397 74.7094C85.6397 71.6573 84.466 69.4273 69.0896 67.901C56.2958 66.6099 48.3142 63.7931 48.3142 53.5818C48.3142 44.074 56.2953 38.4402 69.6764 38.4402C84.7003 38.4402 92.095 43.6045 93.034 54.8725C93.034 55.2246 92.9166 55.5767 92.6819 55.9288C92.4471 56.1636 92.095 56.3983 91.7429 56.3983H85.6397C85.0524 56.3983 84.466 55.9288 84.3481 55.342C82.9397 48.8866 79.3012 46.7739 69.6764 46.7739C58.8784 46.7739 57.5868 50.5298 57.5868 53.3467C57.5868 56.7508 59.1127 57.8067 73.667 59.6847C88.1044 61.5626 94.9119 64.2625 94.9119 74.3568C94.7945 84.6858 86.3439 90.5544 71.437 90.5544Z" fill="#539E43"/>
</g>
<defs>
<clipPath id="clip0_10_44">
<rect width="113.384" height="128" fill="white" transform="translate(0.307953)"/>
</clipPath>
</defs>
</svg>
