<svg width="129" height="128" viewBox="0 0 129 128" fill="none" xmlns="http://www.w3.org/2000/svg">
<path d="M120.228 24.5841L67.66 118.584C67.4132 119.026 67.0532 119.395 66.6171 119.652C66.1809 119.909 65.6842 120.046 65.1779 120.048C64.6715 120.05 64.1737 119.917 63.7355 119.663C63.2973 119.41 62.9344 119.044 62.684 118.604L9.076 24.5921C8.80648 24.1204 8.6771 23.5816 8.70302 23.0389C8.72895 22.4963 8.90912 21.9722 9.22239 21.5284C9.53565 21.0845 9.96902 20.7392 10.4716 20.533C10.9743 20.3268 11.5253 20.2682 12.06 20.3641L64.684 29.7721C65.0187 29.8323 65.3614 29.8323 65.696 29.7721L117.22 20.3801C117.753 20.2827 118.302 20.3388 118.804 20.5419C119.306 20.7449 119.74 21.0864 120.055 21.5266C120.371 21.9669 120.554 22.4877 120.585 23.0283C120.615 23.5689 120.492 24.1111 120.228 24.5841Z" fill="url(#paint0_linear_10_57)"/>
<path d="M89.748 8.02805L50.852 15.6481C50.5406 15.7089 50.2584 15.8716 50.0498 16.1106C49.8412 16.3496 49.7181 16.6513 49.7 16.9681L47.308 57.3841C47.2948 57.6058 47.3335 57.8275 47.421 58.0317C47.5086 58.2358 47.6425 58.4167 47.8122 58.56C47.9819 58.7033 48.1827 58.8051 48.3986 58.8571C48.6145 58.9092 48.8396 58.9102 49.056 58.8601L59.884 56.3601C60.1173 56.3062 60.3604 56.3118 60.5909 56.3764C60.8214 56.441 61.032 56.5625 61.2033 56.7298C61.3746 56.8971 61.501 57.1048 61.571 57.3337C61.6411 57.5627 61.6524 57.8056 61.604 58.0401L58.388 73.7961C58.3384 74.0386 58.3527 74.2899 58.4295 74.5253C58.5063 74.7606 58.643 74.972 58.8261 75.1386C59.0092 75.3052 59.2326 75.4213 59.4741 75.4756C59.7157 75.5298 59.9672 75.5203 60.204 75.4481L66.892 73.4161C67.1292 73.3435 67.3812 73.3339 67.6232 73.3883C67.8651 73.4428 68.0888 73.5593 68.2721 73.7264C68.4553 73.8935 68.5919 74.1055 68.6684 74.3415C68.7448 74.5774 68.7585 74.8292 68.708 75.0721L63.592 99.8201C63.272 101.368 65.332 102.212 66.192 100.888L66.764 100L98.464 36.7401C98.583 36.5017 98.6329 36.2348 98.6082 35.9695C98.5834 35.7043 98.485 35.4512 98.3239 35.239C98.1629 35.0268 97.9457 34.8638 97.6969 34.7686C97.4481 34.6734 97.1776 34.6496 96.916 34.7001L85.768 36.8481C85.528 36.894 85.2803 36.8776 85.0485 36.8004C84.8167 36.7232 84.6086 36.5879 84.444 36.4073C84.2795 36.2267 84.164 36.0069 84.1087 35.7689C84.0534 35.5309 84.06 35.2827 84.128 35.0481L91.4 9.82405C91.4685 9.58863 91.4753 9.33952 91.4196 9.10073C91.3639 8.86193 91.2477 8.6415 91.0821 8.46065C90.9166 8.2798 90.7072 8.14463 90.4742 8.06817C90.2413 7.9917 89.9925 7.97651 89.752 8.02405L89.748 8.02805Z" fill="url(#paint1_linear_10_57)"/>
<defs>
<linearGradient id="paint0_linear_10_57" x1="7.76608" y1="17.0035" x2="73.1868" y2="105.85" gradientUnits="userSpaceOnUse">
<stop stop-color="#41D1FF"/>
<stop offset="1" stop-color="#BD34FE"/>
</linearGradient>
<linearGradient id="paint1_linear_10_57" x1="61.6599" y1="10.0952" x2="73.4942" y2="91.2772" gradientUnits="userSpaceOnUse">
<stop stop-color="#FFEA83"/>
<stop offset="0.083" stop-color="#FFDD35"/>
<stop offset="1" stop-color="#FFA800"/>
</linearGradient>
</defs>
</svg>
