<svg width="800" height="800" viewBox="0 0 800 800" fill="none" xmlns="http://www.w3.org/2000/svg">
  <g clip-path="url(#clip0_3_9)">
    <rect x="102" width="188" height="86" rx="16" fill="#C7C8C8" />
    <rect x="306" y="408" width="188" height="86" rx="16" fill="#333637" />
    <rect x="612" y="714" width="188" height="86" rx="16" fill="#C7C8C8" />
    <rect x="408" width="290" height="86" rx="16" fill="#333637" />
    <rect x="714" width="86" height="188" rx="16" fill="#8C69C6" />
    <rect x="612" y="204" width="86" height="188" rx="16" fill="#333637" />
    <rect y="102" width="86" height="290" rx="16" fill="#333637" />
    <rect x="102" y="612" width="188" height="188" rx="16" fill="#5D94CB" />
    <rect x="102" y="102" width="188" height="188" rx="16" fill="#5D94CB" />
    <rect x="204" y="306" width="86" height="290" rx="16" fill="#8C69C6" />
    <rect x="408" y="510" width="86" height="290" rx="16" fill="#333637" />
    <rect x="306" y="102" width="290" height="290" rx="16" fill="#5D94CB" />
    <rect x="510" y="408" width="290" height="290" rx="16" fill="#8C69C6" />
    <rect y="510" width="188" height="86" rx="16" fill="#333637" />
  </g>
  <defs>
    <clipPath id="clip0_3_9">
      <rect width="800" height="800" fill="white" />
    </clipPath>
  </defs>
</svg>